<svg width="960" height="620" viewBox="0 0 960 620" fill="none" xmlns="http://www.w3.org/2000/svg">
  <defs>
    <linearGradient id="screen" x1="180" y1="0" x2="780" y2="620" gradientUnits="userSpaceOnUse">
      <stop stop-color="#ffffff"/>
      <stop offset="1" stop-color="#d9efff"/>
    </linearGradient>
    <linearGradient id="sidebar" x1="0" y1="0" x2="190" y2="620" gradientUnits="userSpaceOnUse">
      <stop stop-color="#16273a"/>
      <stop offset="1" stop-color="#0b1724"/>
    </linearGradient>
    <linearGradient id="blueFade" x1="480" y1="330" x2="480" y2="620" gradientUnits="userSpaceOnUse">
      <stop stop-color="#1bb8ff" stop-opacity="0"/>
      <stop offset="1" stop-color="#14a8f5" stop-opacity="0.88"/>
    </linearGradient>
    <filter id="shadow" x="0" y="0" width="960" height="620" filterUnits="userSpaceOnUse" color-interpolation-filters="sRGB">
      <feDropShadow dx="0" dy="28" stdDeviation="32" flood-color="#001523" flood-opacity="0.32"/>
    </filter>
  </defs>

  <g filter="url(#shadow)">
    <rect x="28" y="28" width="904" height="536" rx="18" fill="url(#screen)"/>
    <rect x="28" y="28" width="184" height="536" rx="18" fill="url(#sidebar)"/>
    <path d="M194 28H212V564H194V28Z" fill="#102032"/>
    <rect x="52" y="54" width="128" height="34" rx="8" fill="#25384f"/>
    <circle cx="70" cy="71" r="9" fill="#9FE000"/>
    <rect x="88" y="65" width="70" height="8" rx="4" fill="#B7C8D6"/>
    <rect x="52" y="110" width="128" height="28" rx="8" fill="#101d2c"/>
    <rect x="68" y="161" width="102" height="10" rx="5" fill="#7E95A8"/>
    <rect x="68" y="203" width="96" height="10" rx="5" fill="#7E95A8"/>
    <rect x="68" y="245" width="112" height="10" rx="5" fill="#7E95A8"/>
    <rect x="68" y="287" width="88" height="10" rx="5" fill="#7E95A8"/>
    <rect x="52" y="326" width="132" height="38" rx="10" fill="#132A43"/>
    <rect x="68" y="340" width="74" height="10" rx="5" fill="#EAF7FF"/>
    <rect x="68" y="391" width="102" height="10" rx="5" fill="#7E95A8"/>
    <rect x="68" y="433" width="112" height="10" rx="5" fill="#7E95A8"/>

    <rect x="244" y="58" width="180" height="14" rx="7" fill="#1C2B3A"/>
    <rect x="506" y="58" width="54" height="10" rx="5" fill="#1976D2"/>
    <rect x="584" y="58" width="52" height="10" rx="5" fill="#7A8794"/>
    <rect x="660" y="58" width="50" height="10" rx="5" fill="#7A8794"/>
    <rect x="734" y="58" width="48" height="10" rx="5" fill="#7A8794"/>

    <rect x="244" y="104" width="164" height="22" rx="7" fill="#172231"/>
    <rect x="788" y="100" width="110" height="34" rx="8" fill="#1677FF"/>
    <rect x="244" y="154" width="654" height="46" rx="12" fill="#F7FBFF" stroke="#E1ECF5"/>
    <rect x="272" y="172" width="280" height="10" rx="5" fill="#8A98A7"/>
    <rect x="818" y="168" width="64" height="18" rx="6" fill="#EAF2FA"/>

    <rect x="244" y="228" width="314" height="152" rx="16" fill="#F7FBFF" stroke="#DCE8F2"/>
    <rect x="276" y="258" width="90" height="12" rx="6" fill="#1D2D3D"/>
    <rect x="276" y="286" width="222" height="10" rx="5" fill="#8795A5"/>
    <rect x="276" y="308" width="188" height="10" rx="5" fill="#B4C5D3"/>
    <rect x="276" y="336" width="112" height="26" rx="8" fill="#E8F3FF"/>
    <rect x="402" y="336" width="116" height="26" rx="8" fill="#F0E7FF"/>
    <path d="M422 260L432 250L442 260L432 270L422 260Z" fill="#8B5CF6"/>

    <rect x="584" y="228" width="314" height="152" rx="16" fill="#FCFBFF" stroke="#B77BFF" stroke-width="2"/>
    <rect x="616" y="258" width="104" height="12" rx="6" fill="#7C3AED"/>
    <rect x="616" y="286" width="226" height="10" rx="5" fill="#756986"/>
    <rect x="616" y="308" width="188" height="10" rx="5" fill="#B4A6C8"/>
    <rect x="616" y="340" width="58" height="16" rx="8" fill="#FFE5E9"/>
    <rect x="684" y="340" width="58" height="16" rx="8" fill="#E8F3FF"/>

    <circle cx="571" cy="354" r="38" fill="#E8F7FF" stroke="#D3EAFE" stroke-width="3"/>
    <path d="M560 332L594 354L560 376V332Z" fill="#19B6F6"/>

    <rect x="244" y="410" width="184" height="106" rx="16" fill="#F7FBFF" stroke="#DCE8F2"/>
    <path d="M276 474C288 438 314 428 350 438C374 444 384 430 398 414" stroke="#126EF6" stroke-width="10" stroke-linecap="round"/>
    <rect x="276" y="438" width="52" height="12" rx="6" fill="#1C2B3A"/>
    <rect x="344" y="438" width="52" height="12" rx="6" fill="#9FE000"/>
    <rect x="276" y="486" width="86" height="10" rx="5" fill="#7A8794"/>

    <rect x="452" y="410" width="184" height="106" rx="16" fill="#F7FBFF" stroke="#DCE8F2"/>
    <rect x="484" y="438" width="104" height="12" rx="6" fill="#1C2B3A"/>
    <path d="M486 484C504 460 526 498 546 472C566 446 588 486 606 454" stroke="#EC6B76" stroke-width="5" stroke-linecap="round"/>
    <rect x="484" y="486" width="86" height="10" rx="5" fill="#7A8794"/>

    <rect x="660" y="410" width="238" height="106" rx="16" fill="#F7FBFF" stroke="#DCE8F2"/>
    <circle cx="706" cy="462" r="24" fill="#DCFCE7"/>
    <path d="M698 463L705 470L718 454" stroke="#16A34A" stroke-width="5" stroke-linecap="round" stroke-linejoin="round"/>
    <rect x="744" y="440" width="54" height="14" rx="7" fill="#1C2B3A"/>
    <rect x="744" y="466" width="74" height="10" rx="5" fill="#7A8794"/>
    <circle cx="846" cy="462" r="24" fill="#FFF0C2"/>
    <path d="M838 462H854M846 454V470" stroke="#D99A00" stroke-width="5" stroke-linecap="round"/>
  </g>
  <rect y="356" width="960" height="264" fill="url(#blueFade)"/>
</svg>
